<svg width="24" height="24" viewBox="0 0 24 24" fill="none" xmlns="http://www.w3.org/2000/svg">
<path d="M14 12C14 13.019 13.692 13.964 13.168 14.754L10.293 11.879C10.105 11.691 10 11.437 10 11.172V7.101C12.282 7.564 14 9.581 14 12ZM8 11.586V7.101C5.45 7.619 3.604 10.077 4.073 12.868C4.398 14.802 5.893 16.411 7.802 16.86C9.272 17.205 10.662 16.893 11.754 16.169L8.585 13C8.21 12.625 8 12.116 8 11.586ZM19 7H17C16.447 7 16 7.448 16 8C16 8.552 16.447 9 17 9H19C19.553 9 20 8.552 20 8C20 7.448 19.553 7 19 7ZM19 11H17C16.447 11 16 11.448 16 12C16 12.552 16.447 13 17 13H19C19.553 13 20 12.552 20 12C20 11.448 19.553 11 19 11ZM19 15H17C16.447 15 16 15.448 16 16C16 16.552 16.447 17 17 17H19C19.553 17 20 16.552 20 16C20 15.448 19.553 15 19 15ZM24 8V16C24 18.757 21.757 21 19 21H5C2.243 21 0 18.757 0 16V8C0 5.243 2.243 3 5 3H19C21.757 3 24 5.243 24 8ZM22 8C22 6.346 20.654 5 19 5H5C3.346 5 2 6.346 2 8V16C2 17.654 3.346 19 5 19H19C20.654 19 22 17.654 22 16V8Z" fill="#1E293B"/>
</svg>
