<svg width="24" height="22" viewBox="0 0 24 22" fill="none" xmlns="http://www.w3.org/2000/svg">
<path d="M4.00005 5.97711C3.6058 5.97814 3.21526 5.90099 2.85103 5.75011C2.48679 5.59923 2.15609 5.37762 1.87805 5.09811L0.334051 3.72411C0.135935 3.54747 0.0160998 3.29937 0.000909398 3.03438C-0.014281 2.76939 0.0764171 2.50922 0.253051 2.31111C0.429685 2.11299 0.677787 1.99315 0.942776 1.97796C1.20776 1.96277 1.46793 2.05347 1.66605 2.23011L3.25105 3.64411C3.34179 3.746 3.45242 3.82825 3.57613 3.88579C3.69984 3.94334 3.83402 3.97495 3.97041 3.9787C4.1068 3.98245 4.24251 3.95825 4.36919 3.90758C4.49588 3.85692 4.61086 3.78087 4.70705 3.68411L8.31105 0.253105C8.50485 0.0805758 8.75811 -0.00987541 9.01735 0.000856589C9.2766 0.0115886 9.52152 0.122664 9.70039 0.310621C9.87926 0.498578 9.97808 0.7487 9.97596 1.00816C9.97384 1.26761 9.87096 1.51609 9.68905 1.70111L6.10005 5.11511C5.82382 5.38972 5.49618 5.6072 5.13584 5.75511C4.77551 5.90302 4.38956 5.97846 4.00005 5.97711ZM24.0001 3.97711C24.0001 3.71189 23.8947 3.45754 23.7072 3.27C23.5196 3.08246 23.2653 2.97711 23.0001 2.97711H13.0001C12.7348 2.97711 12.4805 3.08246 12.2929 3.27C12.1054 3.45754 12.0001 3.71189 12.0001 3.97711C12.0001 4.24232 12.1054 4.49668 12.2929 4.68421C12.4805 4.87175 12.7348 4.97711 13.0001 4.97711H23.0001C23.2653 4.97711 23.5196 4.87175 23.7072 4.68421C23.8947 4.49668 24.0001 4.24232 24.0001 3.97711ZM6.10005 13.1151L9.68905 9.70111C9.78922 9.61193 9.87043 9.50351 9.92785 9.3823C9.98526 9.26109 10.0177 9.12957 10.0233 8.99557C10.0288 8.86157 10.0073 8.72782 9.96014 8.60228C9.91294 8.47674 9.84097 8.36198 9.74851 8.26483C9.65605 8.16768 9.545 8.09011 9.42195 8.03675C9.2989 7.9834 9.16638 7.95534 9.03227 7.95424C8.89815 7.95315 8.76519 7.97904 8.64129 8.03039C8.51739 8.08173 8.40508 8.15747 8.31105 8.25311L4.71105 11.6841C4.52068 11.8661 4.26744 11.9677 4.00405 11.9677C3.74066 11.9677 3.48742 11.8661 3.29705 11.6841L1.70705 10.0991C1.51845 9.91695 1.26585 9.81615 1.00365 9.81843C0.741453 9.82071 0.490641 9.92588 0.305233 10.1113C0.119825 10.2967 0.0146557 10.5475 0.0123772 10.8097C0.0100988 11.0719 0.110893 11.3245 0.293051 11.5131L1.87805 13.0981C2.43772 13.6579 3.19597 13.9738 3.98755 13.977C4.77913 13.9802 5.53989 13.6704 6.10405 13.1151H6.10005ZM24.0001 11.9771C24.0001 11.7119 23.8947 11.4575 23.7072 11.27C23.5196 11.0825 23.2653 10.9771 23.0001 10.9771H13.0001C12.7348 10.9771 12.4805 11.0825 12.2929 11.27C12.1054 11.4575 12.0001 11.7119 12.0001 11.9771C12.0001 12.2423 12.1054 12.4967 12.2929 12.6842C12.4805 12.8717 12.7348 12.9771 13.0001 12.9771H23.0001C23.2653 12.9771 23.5196 12.8717 23.7072 12.6842C23.8947 12.4967 24.0001 12.2423 24.0001 11.9771ZM6.10005 21.1151L9.68505 17.7011C9.78522 17.6119 9.86643 17.5035 9.92385 17.3823C9.98126 17.2611 10.0137 17.1296 10.0193 16.9956C10.0248 16.8616 10.0033 16.7278 9.95614 16.6023C9.90894 16.4767 9.83697 16.362 9.74451 16.2648C9.65205 16.1677 9.541 16.0901 9.41795 16.0368C9.2949 15.9834 9.16238 15.9553 9.02827 15.9542C8.89415 15.9531 8.76119 15.979 8.63729 16.0304C8.51339 16.0817 8.40108 16.1575 8.30705 16.2531L4.70705 19.6841C4.61086 19.7809 4.49588 19.8569 4.36919 19.9076C4.24251 19.9582 4.1068 19.9824 3.97041 19.9787C3.83402 19.975 3.69984 19.9433 3.57613 19.8858C3.45242 19.8283 3.34179 19.746 3.25105 19.6441L1.66605 18.2301C1.46793 18.0535 1.20776 17.9628 0.942776 17.978C0.677787 17.9932 0.429685 18.113 0.253051 18.3111C0.0764171 18.5092 -0.014281 18.7694 0.000909398 19.0344C0.0160998 19.2994 0.135935 19.5475 0.334051 19.7241L1.87805 21.0981C2.43772 21.6579 3.19597 21.9738 3.98755 21.977C4.77913 21.9802 5.53989 21.6704 6.10405 21.1151H6.10005ZM24.0001 19.9771C24.0001 19.7119 23.8947 19.4575 23.7072 19.27C23.5196 19.0825 23.2653 18.9771 23.0001 18.9771H13.0001C12.7348 18.9771 12.4805 19.0825 12.2929 19.27C12.1054 19.4575 12.0001 19.7119 12.0001 19.9771C12.0001 20.2423 12.1054 20.4967 12.2929 20.6842C12.4805 20.8717 12.7348 20.9771 13.0001 20.9771H23.0001C23.2653 20.9771 23.5196 20.8717 23.7072 20.6842C23.8947 20.4967 24.0001 20.2423 24.0001 19.9771Z" fill="#1E293B"/>
</svg>
