<svg width="29" height="25" viewBox="0 0 29 25" fill="none" xmlns="http://www.w3.org/2000/svg">
<path d="M22.9583 0H6.04167C2.71029 0 0 2.71029 0 6.04167V18.125C0 21.4564 2.71029 24.1667 6.04167 24.1667H22.9583C26.2897 24.1667 29 21.4564 29 18.125V6.04167C29 2.71029 26.2897 0 22.9583 0ZM2.41667 18.125V6.04167C2.41667 4.04308 4.04308 2.41667 6.04167 2.41667H15.7083V21.75H6.04167C4.04308 21.75 2.41667 20.1236 2.41667 18.125ZM26.5833 18.125C26.5833 20.1236 24.9569 21.75 22.9583 21.75H18.125V2.41667H22.9583C24.9569 2.41667 26.5833 4.04308 26.5833 6.04167V18.125ZM24.1667 10.875C24.1667 11.5432 23.6253 12.0833 22.9583 12.0833H21.75C21.083 12.0833 20.5417 11.5432 20.5417 10.875C20.5417 10.2068 21.083 9.66667 21.75 9.66667H22.9583C23.6253 9.66667 24.1667 10.2068 24.1667 10.875ZM24.1667 15.7083C24.1667 16.3765 23.6253 16.9167 22.9583 16.9167H21.75C21.083 16.9167 20.5417 16.3765 20.5417 15.7083C20.5417 15.0401 21.083 14.5 21.75 14.5H22.9583C23.6253 14.5 24.1667 15.0401 24.1667 15.7083ZM24.1667 6.04167C24.1667 6.70988 23.6253 7.25 22.9583 7.25H21.75C21.083 7.25 20.5417 6.70988 20.5417 6.04167C20.5417 5.37346 21.083 4.83333 21.75 4.83333H22.9583C23.6253 4.83333 24.1667 5.37346 24.1667 6.04167Z" fill="#64748B"/>
</svg>
